<svg id="visual" viewBox="0 0 960 540" width="960" height="540" xmlns="http://www.w3.org/2000/svg" xmlns:xlink="http://www.w3.org/1999/xlink" version="1.1"><rect width="960" height="540" fill="#1C1C1C"></rect><g><g transform="translate(457 108)"><path d="M0 -101.2L101.2 0L0 101.2L-101.2 0Z" stroke="#DBA61F" fill="none" stroke-width="2"></path></g><g transform="translate(649 295)"><path d="M0 -56L56 0L0 56L-56 0Z" stroke="#DBA61F" fill="none" stroke-width="2"></path></g><g transform="translate(125 178)"><path d="M0 -81L81 0L0 81L-81 0Z" stroke="#DBA61F" fill="none" stroke-width="2"></path></g><g transform="translate(310 428)"><path d="M0 -59L59 0L0 59L-59 0Z" stroke="#DBA61F" fill="none" stroke-width="2"></path></g><g transform="translate(827 153)"><path d="M0 -43L43 0L0 43L-43 0Z" stroke="#DBA61F" fill="none" stroke-width="2"></path></g><g transform="translate(844 356)"><path d="M0 -69L69 0L0 69L-69 0Z" stroke="#DBA61F" fill="none" stroke-width="2"></path></g></g></svg>