<svg id="visual" viewBox="0 0 960 540" width="960" height="540" xmlns="http://www.w3.org/2000/svg" xmlns:xlink="http://www.w3.org/1999/xlink" version="1.1"><rect width="960" height="540" fill="#1C1C1C"></rect><g><g transform="translate(107 326)"><path d="M0 -89.8L89.8 0L0 89.8L-89.8 0Z" fill="none" stroke="#DBA61F" stroke-width="2"></path></g><g transform="translate(242 32)"><path d="M0 -27L27 0L0 27L-27 0Z" fill="none" stroke="#DBA61F" stroke-width="2"></path></g><g transform="translate(469 338)"><path d="M0 -87L87 0L0 87L-87 0Z" fill="none" stroke="#DBA61F" stroke-width="2"></path></g><g transform="translate(194 536)"><path d="M0 -64L64 0L0 64L-64 0Z" fill="none" stroke="#DBA61F" stroke-width="2"></path></g><g transform="translate(921 465)"><path d="M0 -62L62 0L0 62L-62 0Z" fill="none" stroke="#DBA61F" stroke-width="2"></path></g><g transform="translate(802 143)"><path d="M0 -49L49 0L0 49L-49 0Z" fill="none" stroke="#DBA61F" stroke-width="2"></path></g><g transform="translate(699 351)"><path d="M0 -46L46 0L0 46L-46 0Z" fill="none" stroke="#DBA61F" stroke-width="2"></path></g><g transform="translate(468 530)"><path d="M0 -40L40 0L0 40L-40 0Z" fill="none" stroke="#DBA61F" stroke-width="2"></path></g></g></svg>