<svg id="visual" viewBox="0 0 960 540" width="960" height="540" xmlns="http://www.w3.org/2000/svg" xmlns:xlink="http://www.w3.org/1999/xlink" version="1.1"><rect width="960" height="540" fill="#1C1C1C"></rect><g><g transform="translate(334 154)"><path d="M0 -101.2L101.2 0L0 101.2L-101.2 0Z" fill="none" stroke="#DBA61F" stroke-width="2"></path></g><g transform="translate(608 225)"><path d="M0 -43L43 0L0 43L-43 0Z" fill="none" stroke="#DBA61F" stroke-width="2"></path></g><g transform="translate(299 371)"><path d="M0 -16L16 0L0 16L-16 0Z" fill="none" stroke="#DBA61F" stroke-width="2"></path></g><g transform="translate(805 104)"><path d="M0 -39L39 0L0 39L-39 0Z" stroke="#DBA61F" fill="none" stroke-width="2"></path></g><g transform="translate(787 388)"><path d="M0 -90L90 0L0 90L-90 0Z" stroke="#DBA61F" fill="none" stroke-width="2"></path></g><g transform="translate(113 147)"><path d="M0 -82L82 0L0 82L-82 0Z" stroke="#DBA61F" fill="none" stroke-width="2"></path></g><g transform="translate(519 436)"><path d="M0 -54L54 0L0 54L-54 0Z" stroke="#DBA61F" fill="none" stroke-width="2"></path></g></g></svg>